<svg width="300" height="200" xmlns="http://www.w3.org/2000/svg">
    <!-- Fundo gradiente -->
    <defs>
        <linearGradient id="placeholder-gradient" x1="0%" y1="0%" x2="100%" y2="100%">
            <stop offset="0%" style="stop-color: #FF69B4;" />
            <stop offset="100%" style="stop-color: #FFA500;" />
        </linearGradient>
    </defs>
    <rect width="100%" height="100%" fill="url(#placeholder-gradient)" rx="20" />

    <!-- Ícone de câmera no centro -->
    <svg xmlns="http://www.w3.org/2000/svg" viewBox="0 0 24 24" width="80" height="80" fill="#ffffff">
        <path d="M0 0h24v24H0z" fill="none"/>
        <path d="M12 2C6.48 2 2 6.48 2 12s4.48 10 10 10 10-4.48 10-10S17.52 2 12 2zm-1 18h-2v-2h2v2zm4-4H7V7h8v9zm2-10a2 2 0 0 0-2-2H7a2 2 0 0 0-2 2v8a2 2 0 0 0 2 2h8a2 2 0 0 0 2-2V7z"/>
    </svg>

    <!-- Texto de marcador de posição -->
    <text x="50%" y="60%" alignment-baseline="middle" text-anchor="middle" font-size="16" fill="#ffffff" font-family="Arial">Imagem de Marcador de Posição</text>
</svg>

